<svg width="18" height="18" viewBox="0 0 18 18" fill="none" xmlns="http://www.w3.org/2000/svg">
<path d="M15 17.3125L4 17.3125L4 16L6.64062 16L9.42187 16L15 16L15 17.3125Z" fill="#FF6B0B"/>
<path d="M9 17V14H10V16.4609L10 16.1328V17H9Z" fill="#FF6B0B"/>
<path d="M9 0C5.13438 0 2 3.13438 2 7C2 10.8656 5.13438 14 9 14C12.8656 14 16 10.8656 16 7C16 3.13438 12.8656 0 9 0ZM9 12.8125C5.79063 12.8125 3.1875 10.2094 3.1875 7C3.1875 3.79063 5.79063 1.1875 9 1.1875C12.2094 1.1875 14.8125 3.79063 14.8125 7C14.8125 10.2094 12.2094 12.8125 9 12.8125Z" fill="#FF6B0B"/>
<path d="M4 8C4 4.68661 6.68661 2 10 2V3.01786C7.24911 3.01786 5.01786 5.24911 5.01786 8H4Z" fill="#FF6B0B"/>
<path d="M9 15C4.28125 15 0 11.4179 0 7H1.1875C1.1875 10.6679 5 13.6429 9 13.6429C13 13.6429 16.8125 10.6679 16.8125 7H18C18 11.4179 13.7188 15 9 15Z" fill="#FF6B0B"/>
</svg>
